# xmcd CD database file
#
# Track frame offsets:
#	150
#	13967
#	26060
#	38130
#	49465
#	63257
#	77495
#	94987
#	110890
#	122147
#	134755
#	146757
#	164010
#	177797
#
# Disc length: 2588 seconds
#
# Revision: 4
# Processed by: cddbd v1.5.1PL0 Copyright (c) Steve Scherf et al.
# Submitted via: CDex 1.50
#
DISCID=d30a1a0e
DTITLE=Dusty Springfield - Goin' back
DYEAR=2002
DGENRE=Pop
TTITLE0=I just don't know what to do with myself
TTITLE1=Your hurtin' kinda love
TTITLE2=Will you love me tomorrow
TTITLE3=Every day I have to cry
TTITLE4=Some of your lovin'
TTITLE5=No easy way down
TTITLE6=If you go away
TTITLE7=Goin' back
TTITLE8=Morning please don't come
TTITLE9=How can I be sure
TTITLE10=What do you do when your love dies
TTITLE11=I can't make it alone
TTITLE12=My colouring book
TTITLE13=Yesterday when I was young
EXTD=YEAR: 2002
EXTT0=
EXTT1=
EXTT2=
EXTT3=
EXTT4=
EXTT5=
EXTT6=
EXTT7=
EXTT8=
EXTT9=
EXTT10=
EXTT11=
EXTT12=
EXTT13=
PLAYORDER=
